<?xml version="1.0" encoding="UTF-8"?>
<svg width="65px" height="41px" viewBox="0 0 65 41" version="1.1" xmlns="http://www.w3.org/2000/svg" xmlns:xlink="http://www.w3.org/1999/xlink">
    <title>Group Copy</title>
    <defs>
        <linearGradient x1="0%" y1="0%" x2="100%" y2="100%" id="linearGradient-1">
            <stop stop-color="#1E9AB7" offset="0%"></stop>
            <stop stop-color="#006281" offset="100%"></stop>
        </linearGradient>
        <linearGradient x1="50%" y1="30.46875%" x2="92.6980291%" y2="68.7186172%" id="linearGradient-2">
            <stop stop-color="#38E1F1" offset="0%"></stop>
            <stop stop-color="#1ABFDF" offset="100%"></stop>
        </linearGradient>
    </defs>
    <g id="Design-Mockups" stroke="none" stroke-width="1" fill="none" fill-rule="evenodd">
        <g id="Desktop-Copy-3" transform="translate(-33.000000, -22.000000)">
            <g id="Group-Copy" transform="translate(33.000000, 22.000000)">
                <circle id="Oval" fill="url(#linearGradient-1)" cx="35.5" cy="23.5" r="16"></circle>
                <path d="M40.4427208,0.5 C49.2581871,0.5 56.4045346,7.64293796 56.4045346,16.4541985 C56.4045346,16.7381218 56.3971146,17.0203128 56.3824575,17.3005885 C61.1009489,18.8850021 64.5,23.3415465 64.5,28.5916031 C64.5,35.1684291 59.1658842,40.5 52.5859188,40.5 L12.5668258,40.5 C5.90250192,40.5 0.5,35.1000756 0.5,28.4389313 C0.5,21.777787 5.90250192,16.3778625 12.5668258,16.3778625 C12.789129,16.3778625 13.0100282,16.3838711 13.2293698,16.3957346 C14.8663097,11.6753619 19.354008,8.28625954 24.6336515,8.28625954 C25.3142522,8.28625954 25.9816922,8.34257922 26.6315616,8.45081024 C29.3951589,3.69659031 34.5454598,0.5 40.4427208,0.5 Z M35.0415162,8.36127168 C26.8103298,8.36127168 20.1389892,15.0374326 20.1389892,23.2745665 C20.1389892,31.5117004 26.8103298,38.1878613 35.0415162,38.1878613 C43.2727028,38.1878613 49.9440433,31.5117004 49.9440433,23.2745665 C49.9440433,15.0374326 43.2727028,8.36127168 35.0415162,8.36127168 Z M39.1691083,24.1391052 L43.3926909,31.1274609 L39.6250631,31.1274609 L37.1773051,27.0689313 L39.1691083,24.1391052 Z M43.3926909,16.8865851 L33.769642,31.1274609 L30.0020143,31.1274609 L39.6250631,16.8865851 L43.3926909,16.8865851 Z M38.9531297,16.8865851 L36.9133313,19.912471 L33.4336752,19.912471 L33.4336752,25.051674 L30.0020143,30.1188322 L30.0020143,19.912471 L26.6903417,19.912471 L26.6903417,16.8865851 L38.9531297,16.8865851 Z" id="Combined-Shape" fill="url(#linearGradient-2)" fill-rule="nonzero"></path>
            </g>
        </g>
    </g>
</svg>